<svg width="20" height="20" viewBox="0 0 20 20" fill="none" xmlns="http://www.w3.org/2000/svg">
<g clip-path="url(#clip0)">
<path d="M15.8063 12.3892C15.3968 11.9628 14.903 11.7349 14.3795 11.7349C13.8603 11.7349 13.3622 11.9586 12.9359 12.385L11.602 13.7146C11.4923 13.6555 11.3825 13.6006 11.277 13.5458C11.125 13.4698 10.9815 13.398 10.8591 13.3221C9.60966 12.5285 8.47417 11.4943 7.38512 10.1562C6.85747 9.48926 6.5029 8.92785 6.24541 8.358C6.59154 8.04141 6.91235 7.71216 7.22471 7.39558C7.34291 7.27738 7.4611 7.15497 7.57929 7.03678C8.46573 6.15034 8.46573 5.00219 7.57929 4.11575L6.42692 2.96338C6.29606 2.83253 6.16099 2.69745 6.03435 2.56238C5.78108 2.30067 5.51515 2.03051 5.24078 1.77725C4.83133 1.37202 4.34168 1.15674 3.8267 1.15674C3.31172 1.15674 2.81362 1.37202 2.39151 1.77725C2.38729 1.78147 2.38729 1.78147 2.38307 1.78569L0.947882 3.23354C0.407577 3.77384 0.0994339 4.43234 0.0318957 5.19636C-0.0694116 6.42894 0.293606 7.57709 0.572201 8.32845C1.25603 10.1731 2.27754 11.8826 3.80137 13.7146C5.65023 15.9223 7.87477 17.6656 10.4159 18.8939C11.3868 19.3541 12.6826 19.8986 14.1305 19.9914C14.2191 19.9957 14.312 19.9999 14.3964 19.9999C15.3715 19.9999 16.1904 19.6495 16.832 18.953C16.8362 18.9446 16.8447 18.9404 16.8489 18.9319C17.0684 18.666 17.3217 18.4254 17.5876 18.1679C17.7691 17.9948 17.9548 17.8133 18.1364 17.6234C18.5542 17.1886 18.7737 16.6821 18.7737 16.1629C18.7737 15.6395 18.55 15.1371 18.1237 14.715L15.8063 12.3892ZM17.3175 16.834C17.3132 16.834 17.3132 16.8383 17.3175 16.834C17.1528 17.0113 16.984 17.1717 16.8025 17.349C16.5281 17.6107 16.2495 17.8851 15.9878 18.1932C15.5615 18.6491 15.0591 18.8644 14.4006 18.8644C14.3373 18.8644 14.2698 18.8644 14.2065 18.8602C12.9528 18.78 11.7878 18.2903 10.914 17.8724C8.52482 16.7158 6.42692 15.0738 4.68359 12.9928C3.24418 11.2579 2.28176 9.65388 1.64437 7.93166C1.2518 6.8806 1.10829 6.0617 1.1716 5.28923C1.21381 4.79536 1.40377 4.38591 1.75412 4.03555L3.19353 2.59615C3.40036 2.40197 3.61986 2.29644 3.83514 2.29644C4.10107 2.29644 4.31635 2.45685 4.45143 2.59192C4.45565 2.59615 4.45987 2.60037 4.46409 2.60459C4.72158 2.84519 4.9664 3.09424 5.22389 3.36017C5.35475 3.49525 5.48983 3.63032 5.6249 3.76962L6.77727 4.92199C7.22471 5.36943 7.22471 5.7831 6.77727 6.23054C6.65486 6.35296 6.53667 6.47537 6.41425 6.59356C6.05968 6.95658 5.72199 7.29427 5.35475 7.62352C5.34631 7.63196 5.33786 7.63618 5.33364 7.64462C4.97063 8.00764 5.03816 8.36222 5.11414 8.60282C5.11837 8.61548 5.12259 8.62815 5.12681 8.64081C5.42651 9.36685 5.84862 10.0507 6.49023 10.8653L6.49446 10.8696C7.65949 12.3048 8.88784 13.4234 10.2428 14.2802C10.4159 14.39 10.5932 14.4786 10.762 14.5631C10.914 14.639 11.0575 14.7108 11.1799 14.7868C11.1968 14.7952 11.2137 14.8079 11.2306 14.8163C11.3741 14.8881 11.5092 14.9219 11.6485 14.9219C11.9988 14.9219 12.2183 14.7024 12.2901 14.6306L13.7337 13.187C13.8772 13.0435 14.1052 12.8704 14.3711 12.8704C14.6328 12.8704 14.8481 13.035 14.9789 13.1785C14.9832 13.1828 14.9832 13.1828 14.9874 13.187L17.3132 15.5128C17.748 15.9434 17.748 16.3866 17.3175 16.834Z" fill="white"/>
<path d="M10.8084 4.7574C11.9144 4.94313 12.919 5.46656 13.721 6.26857C14.523 7.07059 15.0422 8.07522 15.2322 9.18116C15.2786 9.45975 15.5192 9.65392 15.7936 9.65392C15.8274 9.65392 15.8569 9.6497 15.8907 9.64548C16.2031 9.59483 16.4099 9.29935 16.3592 8.98698C16.1313 7.64888 15.4981 6.42898 14.5315 5.46233C13.5648 4.49569 12.3449 3.86252 11.0068 3.63458C10.6945 3.58393 10.4032 3.79076 10.3483 4.09891C10.2935 4.40705 10.4961 4.70675 10.8084 4.7574Z" fill="white"/>
<path d="M19.9768 8.82242C19.6011 6.61899 18.5627 4.61395 16.9671 3.01836C15.3715 1.42277 13.3665 0.384369 11.163 0.00868772C10.8549 -0.0461871 10.5636 0.16487 10.5088 0.473013C10.4581 0.785377 10.665 1.07664 10.9773 1.13151C12.9444 1.46498 14.7383 2.39785 16.1651 3.82037C17.5918 5.24712 18.5205 7.0411 18.854 9.00815C18.9004 9.28675 19.141 9.48092 19.4154 9.48092C19.4491 9.48092 19.4787 9.4767 19.5125 9.47248C19.8206 9.42604 20.0317 9.13056 19.9768 8.82242Z" fill="white"/>
</g>
<defs>
<clipPath id="clip0">
<rect width="20" height="20" fill="white"/>
</clipPath>
</defs>
</svg>
