<svg width="20" height="20" viewBox="0 0 20 20" fill="none" xmlns="http://www.w3.org/2000/svg">
<g clip-path="url(#clip0)">
<path d="M19.7873 8.1276L10.307 1.18631C10.1242 1.05248 9.87582 1.05248 9.69309 1.18631L0.212703 8.1276C-0.0188598 8.29717 -0.0691723 8.62232 0.100398 8.85389C0.269968 9.08545 0.595163 9.13568 0.826687 8.96619L10 2.24963L19.1733 8.96615C19.2658 9.03393 19.3733 9.06654 19.4799 9.06654C19.6399 9.06654 19.7978 8.99291 19.8996 8.85385C20.0692 8.62232 20.0189 8.29717 19.7873 8.1276Z" fill="white"/>
<path d="M17.2752 9.0835C16.9883 9.0835 16.7556 9.31615 16.7556 9.60314V17.8746H12.5985V13.3595C12.5985 11.9267 11.4328 10.7611 10 10.7611C8.5673 10.7611 7.4016 11.9268 7.4016 13.3595V17.8746H3.24445V9.60318C3.24445 9.31619 3.01176 9.08354 2.7248 9.08354C2.43785 9.08354 2.20515 9.31619 2.20515 9.60318V18.3943C2.20515 18.6813 2.43785 18.914 2.7248 18.914H7.92125C8.19453 18.914 8.41816 18.7028 8.43887 18.4348C8.44012 18.4226 8.4409 18.4094 8.4409 18.3943V13.3596C8.4409 12.4998 9.14031 11.8004 10 11.8004C10.8598 11.8004 11.5592 12.4999 11.5592 13.3596V18.3943C11.5592 18.4093 11.56 18.4223 11.5612 18.4343C11.5817 18.7026 11.8054 18.914 12.0788 18.914H17.2753C17.5623 18.914 17.7949 18.6813 17.7949 18.3943V9.60318C17.7949 9.31615 17.5622 9.0835 17.2752 9.0835Z" fill="white"/>
</g>
<defs>
<clipPath id="clip0">
<rect width="20" height="20" fill="white"/>
</clipPath>
</defs>
</svg>
