<svg width="100" height="100" viewBox="0 0 100 100" fill="none" xmlns="http://www.w3.org/2000/svg">
<path d="M91.0172 86.8741L80.5258 73.3862C83.9254 72.3705 86.862 70.1963 88.8258 67.2414C91.2965 62.9707 90.1793 57.7586 89.0982 52.7241C88.4446 50.1379 88.0534 47.4922 87.931 44.8276C88.053 42.1606 88.4439 39.5125 89.0982 36.9241C90.1724 31.8862 91.2965 26.6776 88.8258 22.4138C86.2672 17.9931 81.1155 16.3569 76.1327 14.7776C73.6523 14.0942 71.2502 13.1534 68.9655 11.9707C66.8922 10.6259 64.9672 9.06552 63.2224 7.31552C59.5258 3.88448 55.3344 0 50 0C44.6655 0 40.4741 3.88448 36.7758 7.31379C35.0316 9.06422 33.1071 10.6252 31.0344 11.9707C28.75 13.1511 26.3484 14.0894 23.8689 14.7707C18.8862 16.35 13.7344 17.9862 11.1758 22.4069C8.70513 26.6776 9.82237 31.8897 10.9034 36.9241C11.5571 39.5127 11.9476 42.1606 12.0689 44.8276C11.9469 47.4946 11.556 50.1427 10.9017 52.731C9.82754 57.769 8.70341 62.9776 11.1741 67.2414C13.1405 70.1974 16.0803 72.3709 19.4827 73.3845L8.98272 86.8724C8.39823 87.6241 8.53379 88.7073 9.28573 89.2918C9.64694 89.5726 10.1047 89.6983 10.5586 89.6414L22.8862 88.1017L25.9293 98.75C26.1075 99.3741 26.6213 99.8453 27.2586 99.969C27.3666 99.9894 27.4763 100 27.5862 100C28.1185 100 28.6213 99.7547 28.9482 99.3345L39.9586 85.1724C42.6681 87.8101 46.2271 89.3991 50 89.6552C53.7728 89.3991 57.3319 87.8101 60.0413 85.1724L71.0517 99.3293C71.3775 99.7515 71.8803 99.9991 72.4138 100C72.5237 100 72.6334 99.9894 72.7413 99.969C73.3786 99.8453 73.8924 99.3741 74.0706 98.75L77.1138 88.1034L89.4413 89.6431C90.3862 89.7616 91.2482 89.0918 91.3668 88.147C91.4237 87.6931 91.298 87.2353 91.0172 86.8741ZM28.3103 94.5362L25.7948 85.7328C25.5609 84.9162 24.767 84.3916 23.9241 84.4966L14.2689 85.7034L22.9224 74.5793L23.8758 74.8845C26.353 75.5662 28.7521 76.5045 31.0344 77.6845C33.1077 79.0293 35.0327 80.5897 36.7775 82.3397L37.3706 82.8879L28.3103 94.5362ZM50 86.2069C46.0172 86.2069 42.6672 83.1034 39.1189 79.8138C37.1885 77.8851 35.0562 76.1703 32.7586 74.6983C30.2588 73.3897 27.6273 72.3494 24.9086 71.5948C20.3517 70.1483 16.0465 68.7828 14.1569 65.5172C12.3534 62.3983 13.2844 58.0517 14.2724 53.4483C14.9834 50.6252 15.4006 47.7364 15.5172 44.8276C15.4013 41.9188 14.9847 39.03 14.2741 36.2069C13.2862 31.6052 12.3551 27.2586 14.1586 24.1379C16.0551 20.8724 20.3534 19.5069 24.9103 18.0603C27.6286 17.3056 30.2592 16.2653 32.7586 14.9569C35.0556 13.4849 37.1875 11.7698 39.1172 9.84138C42.6672 6.55172 46.0172 3.44828 50 3.44828C53.9827 3.44828 57.3327 6.55172 60.881 9.84138C62.8114 11.77 64.9437 13.4849 67.2413 14.9569C69.7411 16.2655 72.3726 17.3058 75.0913 18.0603C79.6482 19.5069 83.9534 20.8724 85.8431 24.1379C87.6465 27.2569 86.7155 31.6034 85.7275 36.2069C85.0166 39.03 84.5993 41.9188 84.4827 44.8276C84.5987 47.7364 85.0153 50.6252 85.7258 53.4483C86.7138 58.05 87.6448 62.3965 85.8413 65.5172C83.9448 68.7828 79.6465 70.1483 75.0896 71.5948C72.3713 72.3496 69.7407 73.3899 67.2413 74.6983C64.9444 76.1703 62.8125 77.8853 60.8827 79.8138C57.3327 83.1034 53.9827 86.2069 50 86.2069ZM76.0844 84.4966C75.2416 84.3916 74.4476 84.9162 74.2138 85.7328L71.6896 94.5362L62.631 82.8897L63.2241 82.3414C64.9683 80.5909 66.8928 79.03 68.9655 77.6845C71.25 76.5041 73.6515 75.5657 76.131 74.8845L77.0844 74.5793L85.7396 85.7034L76.0844 84.4966Z" fill="white"/>
<path d="M50.0001 13.7931C32.8602 13.7931 18.9656 27.6877 18.9656 44.8276C18.9656 61.9674 32.8602 75.8621 50.0001 75.8621C67.1399 75.8621 81.0345 61.9674 81.0345 44.8276C81.0147 27.6959 67.1317 13.8131 50.0001 13.7931ZM50.0001 72.4138C34.7647 72.4138 22.4139 60.0629 22.4139 44.8276C22.4139 29.5922 34.7647 17.2414 50.0001 17.2414C65.2354 17.2414 77.5863 29.5922 77.5863 44.8276C77.5682 60.0556 65.2281 72.3957 50.0001 72.4138Z" fill="white"/>
<path d="M69.8931 37.6258C69.2444 36.7347 68.2091 36.2073 67.1069 36.2069H56.5517L53.2759 26.1603C52.6813 24.351 50.7325 23.3666 48.9233 23.9612C47.8825 24.3032 47.0662 25.1196 46.7241 26.1603L43.4569 36.2069H32.8931C30.9886 36.206 29.444 37.7489 29.4431 39.6534C29.4425 40.7569 29.9701 41.7937 30.8621 42.4431L39.4069 48.65L36.1431 58.6965C35.5543 60.5077 36.5455 62.4532 38.3565 63.0418C39.4067 63.3831 40.5567 63.2008 41.45 62.5517L50 56.3465L58.5466 62.5534C59.7504 63.4478 61.3978 63.4478 62.6017 62.5534C63.8235 61.6851 64.3321 60.1187 63.8535 58.6982L60.5897 48.65L69.1345 42.4431C70.6744 41.3224 71.014 39.1655 69.8931 37.6258ZM57.5483 46.5982C56.9435 47.0377 56.6907 47.8168 56.9224 48.5275L60.5741 59.7655L51.0138 52.8206C50.4097 52.3821 49.592 52.3821 48.9879 52.8206L39.4276 59.7655L43.0776 48.5275C43.3084 47.8172 43.0558 47.0392 42.4517 46.6L32.8931 39.6551H44.7086C45.4556 39.6551 46.1175 39.1741 46.3483 38.4638L50 27.2258L53.6517 38.462C53.8825 39.1724 54.5444 39.6534 55.2914 39.6534L67.1069 39.6551L57.5483 46.5982Z" fill="white"/>
</svg>
