<svg width="100" height="100" viewBox="0 0 100 100" fill="none" xmlns="http://www.w3.org/2000/svg">
<path d="M50 100C77.5702 100 100 77.5702 100 50C100 22.4298 77.5702 0 50 0C22.4298 0 0 22.4298 0 50C0 77.5702 22.4298 100 50 100ZM50 4.4586C75.112 4.4586 95.5414 24.888 95.5414 50C95.5414 75.112 75.112 95.5414 50 95.5414C24.888 95.5414 4.4586 75.112 4.4586 50C4.4586 24.888 24.888 4.4586 50 4.4586Z" fill="white"/>
<path d="M37.6754 45.5066C42.7747 45.5066 46.9074 41.3727 46.9074 36.2747C46.9086 31.1754 42.7747 27.0415 37.6754 27.0415C32.5761 27.0415 28.4435 31.1754 28.4435 36.2734C28.4485 41.3702 32.5786 45.5004 37.6754 45.5066ZM37.6754 31.5001C40.3115 31.5001 42.4488 33.6373 42.4488 36.2734C42.45 38.9108 40.3128 41.048 37.6754 41.048C35.0393 41.048 32.9021 38.9108 32.9021 36.2734C32.9046 33.6386 35.0406 31.5038 37.6754 31.5001Z" fill="white"/>
<path d="M52.5328 64.2864C52.5328 69.3857 56.6667 73.5183 61.7648 73.5183C66.864 73.5183 70.9979 69.3857 70.9979 64.2864C70.9979 59.1871 66.864 55.0532 61.7648 55.0532C56.668 55.0594 52.5391 59.1896 52.5328 64.2864ZM66.5393 64.2864C66.5393 66.9225 64.4021 69.0597 61.7648 69.0597C59.1287 69.0597 56.9914 66.9225 56.9914 64.2864C56.9914 61.6503 59.1287 59.5131 61.7648 59.5118C64.4009 59.5156 66.5356 61.6503 66.5393 64.2864Z" fill="white"/>
<path d="M33.0252 76.0275C34.0565 76.7005 35.4386 76.4094 36.1104 75.3781L67.6241 27.0576C68.0608 26.3895 68.108 25.5398 67.7485 24.8283C67.3877 24.1167 66.6749 23.6514 65.8787 23.6091C65.0826 23.5668 64.3237 23.9525 63.8895 24.6217L32.3758 72.9423C31.7028 73.9748 31.9939 75.3557 33.0252 76.0275Z" fill="white"/>
</svg>
