<svg width="30" height="30" viewBox="0 0 30 30" fill="none" xmlns="http://www.w3.org/2000/svg">
<path d="M20.9033 17.5752C20.584 17.4111 18.9932 16.6318 18.6973 16.5264C18.4014 16.415 18.1846 16.3623 17.9707 16.6904C17.7539 17.0156 17.1387 17.7393 16.9453 17.959C16.7578 18.1758 16.5674 18.2021 16.248 18.041C14.3496 17.0918 13.1045 16.3477 11.8535 14.2002C11.5225 13.6289 12.1846 13.6699 12.8027 12.4365C12.9082 12.2197 12.8555 12.0352 12.7734 11.8711C12.6914 11.707 12.0469 10.1191 11.7773 9.47168C11.5166 8.8418 11.2471 8.92969 11.0508 8.91797C10.8633 8.90625 10.6494 8.90625 10.4326 8.90625C10.2158 8.90625 9.86719 8.98828 9.57129 9.30762C9.27539 9.63281 8.44043 10.415 8.44043 12.0029C8.44043 13.5908 9.59766 15.1289 9.75586 15.3457C9.91992 15.5625 12.0322 18.8203 15.2754 20.2236C17.3262 21.1084 18.1289 21.1846 19.1543 21.0322C19.7783 20.9385 21.0645 20.2529 21.3311 19.4941C21.5977 18.7383 21.5977 18.0908 21.5186 17.9561C21.4395 17.8125 21.2227 17.7305 20.9033 17.5752Z" fill="#3D3D3D"/>
<path d="M27.1055 9.91406C26.4433 8.34082 25.4941 6.92871 24.2842 5.71582C23.0742 4.50586 21.6621 3.55371 20.0859 2.89453C18.4746 2.21777 16.7637 1.875 15 1.875H14.9414C13.166 1.88379 11.4463 2.23535 9.82909 2.92676C8.26756 3.59473 6.86717 4.54395 5.66893 5.75391C4.47069 6.96387 3.53026 8.37012 2.87987 9.9375C2.20604 11.5605 1.86619 13.2861 1.87498 15.0615C1.88377 17.0947 2.3701 19.1133 3.28123 20.918V25.3711C3.28123 26.1152 3.88475 26.7188 4.62889 26.7188H9.08494C10.8896 27.6299 12.9082 28.1162 14.9414 28.125H15.0029C16.7578 28.125 18.4599 27.7852 20.0625 27.1201C21.6299 26.4668 23.039 25.5293 24.2461 24.3311C25.456 23.1328 26.4082 21.7324 27.0732 20.1709C27.7646 18.5537 28.1162 16.834 28.125 15.0586C28.1338 13.2744 27.7881 11.543 27.1055 9.91406V9.91406ZM22.6787 22.7461C20.625 24.7793 17.9004 25.8984 15 25.8984H14.9502C13.1836 25.8896 11.4287 25.4502 9.87889 24.624L9.6328 24.4922H5.5078V20.3672L5.37596 20.1211C4.54979 18.5713 4.11033 16.8164 4.10155 15.0498C4.08983 12.1289 5.20604 9.38672 7.25389 7.32129C9.29881 5.25586 12.0322 4.11328 14.9531 4.10156H15.0029C16.4678 4.10156 17.8887 4.38574 19.2275 4.94824C20.5342 5.49609 21.706 6.28418 22.7139 7.29199C23.7187 8.29687 24.5097 9.47168 25.0576 10.7783C25.626 12.1318 25.9101 13.5674 25.9043 15.0498C25.8867 17.9678 24.7412 20.7012 22.6787 22.7461V22.7461Z" fill="#3D3D3D"/>
</svg>
