<svg width="100" height="100" viewBox="0 0 100 100" fill="none" xmlns="http://www.w3.org/2000/svg">
<g clip-path="url(#clip0)">
<path d="M69.7258 30.7196C69.3633 30.7198 69.0157 30.8639 68.7594 31.1204L44.9485 54.9313L31.2453 41.2274C30.9842 40.9804 30.6384 40.8427 30.2789 40.8427C29.9195 40.8427 29.5736 40.9804 29.3125 41.2274L23.7883 46.7524C23.5321 47.0088 23.3882 47.3564 23.3882 47.7188C23.3882 48.0813 23.5321 48.4289 23.7883 48.6852L43.9844 68.8798C44.1112 69.0068 44.2619 69.1076 44.4277 69.1763C44.5935 69.2451 44.7713 69.2805 44.9508 69.2805C45.1303 69.2805 45.3081 69.2451 45.4739 69.1763C45.6397 69.1076 45.7904 69.0068 45.9172 68.8798L76.2164 38.5782C76.4727 38.3217 76.6166 37.974 76.6166 37.6114C76.6166 37.2488 76.4727 36.9011 76.2164 36.6446L70.6922 31.1204C70.4359 30.8639 70.0883 30.7198 69.7258 30.7196ZM44.9485 65.9798L26.6883 47.7188L30.282 44.1251L43.9844 57.8305C44.1112 57.9576 44.2619 58.0584 44.4277 58.1271C44.5935 58.1959 44.7713 58.2313 44.9508 58.2313C45.1303 58.2313 45.3081 58.1959 45.4739 58.1271C45.6397 58.0584 45.7904 57.9576 45.9172 57.8305L69.7258 34.0204L73.3195 37.6141L44.9485 65.9798Z" fill="white"/>
<path d="M50 12.7594C42.6345 12.7594 35.4344 14.9435 29.3102 19.0356C23.186 23.1276 18.4128 28.9438 15.5941 35.7487C12.7755 42.5535 12.038 50.0413 13.4749 57.2653C14.9119 64.4893 18.4587 71.1249 23.6669 76.3331C28.8751 81.5413 35.5107 85.0882 42.7347 86.5251C49.9587 87.962 57.4465 87.2245 64.2513 84.4059C71.0562 81.5872 76.8724 76.814 80.9644 70.6898C85.0565 64.5656 87.2406 57.3655 87.2406 50C87.2294 40.1266 83.3023 30.6608 76.3207 23.6793C69.3392 16.6977 59.8734 12.7706 50 12.7594ZM50 84.5063C43.1753 84.5063 36.5039 82.4825 30.8293 78.6909C25.1548 74.8993 20.7321 69.5102 18.1204 63.205C15.5087 56.8998 14.8253 49.9618 16.1568 43.2682C17.4882 36.5746 20.7746 30.4262 25.6004 25.6004C30.4262 20.7746 36.5746 17.4882 43.2681 16.1568C49.9617 14.8254 56.8997 15.5087 63.2049 18.1204C69.5101 20.7321 74.8993 25.1549 78.6909 30.8294C82.4825 36.5039 84.5062 43.1753 84.5062 50C84.4959 59.1485 80.8571 67.9193 74.3882 74.3882C67.9192 80.8571 59.1484 84.4959 50 84.5063Z" fill="white"/>
<path d="M98.4601 54.3852C99.464 53.1442 100.012 51.5963 100.012 50.0001C100.012 48.4038 99.464 46.8559 98.4601 45.6149L96.2195 42.818C95.79 42.2813 95.496 41.649 95.3624 40.9747C95.2287 40.3004 95.2593 39.6038 95.4515 38.9438L96.4515 35.5133C96.8907 33.9794 96.7972 32.3419 96.1862 30.8679C95.5753 29.394 94.483 28.1704 93.0875 27.3969L89.957 25.6782C89.354 25.3479 88.8393 24.8774 88.4565 24.3062C88.0737 23.7351 87.8341 23.0802 87.7578 22.3969L87.3672 18.8383C87.2 17.2501 86.4927 15.7674 85.3634 14.6382C84.2342 13.5089 82.7515 12.8016 81.1633 12.6344L77.6047 12.2438C76.9214 12.1678 76.2665 11.9283 75.6953 11.5457C75.1242 11.163 74.6536 10.6484 74.3234 10.0454L72.6047 6.91412C71.843 5.50716 70.6207 4.40495 69.1427 3.79242C67.6648 3.17989 66.0211 3.09432 64.4875 3.55005L61.0578 4.54927C60.3974 4.74116 59.7007 4.77149 59.0261 4.6377C58.3516 4.50391 57.7191 4.20992 57.182 3.78052L54.3851 1.5399C53.1439 0.536429 51.5961 -0.0109863 50 -0.0109863C48.4039 -0.0109863 46.856 0.536429 45.6148 1.5399L42.818 3.78052C42.2807 4.20902 41.6484 4.50239 40.9743 4.63602C40.3002 4.76965 39.6039 4.73963 38.9437 4.54849L35.5133 3.54849C33.9793 3.10905 32.3417 3.20243 30.8677 3.81339C29.3936 4.42435 28.1702 5.51682 27.3969 6.91255L25.6781 10.043C25.3479 10.6461 24.8773 11.1607 24.3062 11.5435C23.735 11.9263 23.0802 12.166 22.3969 12.2422L18.8383 12.6329C17.25 12.8 15.7673 13.5073 14.6381 14.6366C13.5088 15.7658 12.8015 17.2485 12.6344 18.8368L12.2437 22.3954C12.1677 23.0786 11.9283 23.7336 11.5456 24.3047C11.1629 24.8759 10.6483 25.3464 10.0453 25.6766L6.91405 27.3954C5.5074 28.1573 4.40546 29.3797 3.79297 30.8576C3.18049 32.3354 3.0947 33.979 3.54999 35.5126L4.55077 38.9415C4.74265 39.6018 4.77298 40.2986 4.63919 40.9731C4.5054 41.6477 4.21142 42.2801 3.78202 42.8172L1.54139 45.6141C0.537515 46.8552 -0.0101624 48.403 -0.0101624 49.9993C-0.0101624 51.5955 0.537515 53.1434 1.54139 54.3844L3.78202 57.1813C4.2115 57.7181 4.50549 58.3503 4.63916 59.0246C4.77283 59.6989 4.74224 60.3955 4.54999 61.0555L3.54999 64.486C3.11051 66.0199 3.20369 67.6574 3.81434 69.1315C4.42499 70.6057 5.51707 71.8294 6.91249 72.6032L10.043 74.3219C10.646 74.6522 11.1607 75.1227 11.5434 75.6939C11.9262 76.265 12.1659 76.9199 12.2422 77.6032L12.6328 81.1618C12.7999 82.75 13.5073 84.2327 14.6365 85.362C15.7658 86.4912 17.2485 87.1985 18.8367 87.3657L22.3953 87.7563C23.0786 87.8323 23.7335 88.0718 24.3046 88.4545C24.8758 88.8371 25.3464 89.3517 25.6765 89.9547L27.3953 93.086C28.1569 94.493 29.3793 95.5952 30.8572 96.2077C32.3352 96.8202 33.9789 96.9058 35.5125 96.4501L38.9414 95.4493C39.6018 95.258 40.2985 95.228 40.9729 95.3617C41.6473 95.4955 42.2798 95.7891 42.8172 96.218L45.614 98.4587C46.8551 99.4625 48.403 100.01 49.9992 100.01C51.5954 100.01 53.1433 99.4625 54.3844 98.4587L57.1812 96.218C57.7181 95.7887 58.3503 95.4948 59.0246 95.3612C59.6989 95.2275 60.3954 95.258 61.0555 95.4501L64.4859 96.4501C66.0194 96.9053 67.6628 96.8195 69.1405 96.207C70.6183 95.5945 71.8405 94.4926 72.6023 93.086L74.3211 89.9555C74.6513 89.3525 75.1219 88.8378 75.693 88.455C76.2641 88.0723 76.919 87.8326 77.6023 87.7563L81.1609 87.3657C82.7491 87.1985 84.2318 86.4912 85.3611 85.362C86.4903 84.2327 87.1977 82.75 87.3648 81.1618L87.7555 77.6032C87.8315 76.9199 88.0709 76.265 88.4536 75.6938C88.8363 75.1227 89.3509 74.6521 89.9539 74.3219L93.0851 72.6032C94.4918 71.8412 95.5937 70.6189 96.2062 69.141C96.8187 67.6631 96.9045 66.0196 96.4492 64.486L95.4484 61.0571C95.2565 60.3967 95.2262 59.6999 95.36 59.0254C95.4938 58.3509 95.7878 57.7184 96.2172 57.1813L98.4601 54.3852ZM94.0851 55.4735C93.3814 56.3534 92.8997 57.3896 92.6805 58.4948C92.4613 59.6 92.5111 60.7416 92.8258 61.8235L93.8273 65.2524C94.1049 66.1881 94.0525 67.1909 93.6787 68.0925C93.3049 68.9942 92.6325 69.7399 91.7742 70.2047L88.6422 71.9235C87.6534 72.4654 86.8098 73.2376 86.1829 74.1748C85.556 75.1119 85.1641 76.1864 85.0406 77.3071L84.65 80.8657C84.5474 81.8347 84.1156 82.7392 83.4266 83.4282C82.7375 84.1172 81.833 84.549 80.864 84.6516L77.3047 85.0422C76.1841 85.1662 75.1098 85.5583 74.1729 86.1854C73.2359 86.8124 72.4638 87.656 71.9219 88.6446L70.2031 91.7758C69.738 92.6336 68.9923 93.3056 68.091 93.6794C67.1896 94.0531 66.1872 94.1059 65.2515 93.829L61.8219 92.8282C60.7402 92.513 59.5986 92.4628 58.4935 92.6819C57.3884 92.9009 56.3522 93.3828 55.4726 94.0868L52.6758 96.3274C51.9184 96.9404 50.9735 97.2748 49.9992 97.2748C49.0249 97.2748 48.08 96.9404 47.3226 96.3274L44.5258 94.0868C43.6459 93.383 42.6097 92.9011 41.5045 92.682C40.3993 92.4628 39.2576 92.5126 38.1758 92.8274L34.7476 93.8282C33.8119 94.1049 32.8095 94.052 31.908 93.6783C31.0066 93.3046 30.2608 92.6327 29.7953 91.7751L28.0765 88.643C27.5346 87.6543 26.7624 86.8107 25.8253 86.1838C24.8881 85.5568 23.8137 85.165 22.693 85.0415L19.1344 84.6508C18.1654 84.5483 17.2609 84.1164 16.5718 83.4274C15.8828 82.7384 15.451 81.8339 15.3484 80.8649L14.9578 77.3055C14.8338 76.1849 14.4417 75.1107 13.8147 74.1737C13.1876 73.2368 12.3441 72.4647 11.3555 71.9227L8.2242 70.204C7.37283 69.7321 6.70645 68.9856 6.33373 68.0864C5.96102 67.1872 5.90396 66.1882 6.17186 65.2524L7.17264 61.8227C7.48757 60.7411 7.53761 59.5995 7.31856 58.4944C7.0995 57.3894 6.61778 56.3532 5.91405 55.4735L3.67186 52.6766C3.05919 51.9191 2.72494 50.9743 2.72494 50.0001C2.72494 49.0258 3.05919 48.081 3.67186 47.3235L5.91249 44.5266C6.61618 43.6467 7.09794 42.6105 7.31712 41.5053C7.5363 40.4002 7.48648 39.2585 7.17186 38.1766L6.17186 34.7477C5.89423 33.812 5.94672 32.8092 6.32052 31.9076C6.69432 31.0059 7.36671 30.2602 8.22499 29.7954L11.357 28.0766C12.3458 27.5347 13.1893 26.7625 13.8163 25.8253C14.4432 24.8882 14.8351 23.8138 14.9586 22.693L15.3492 19.1344C15.4525 18.165 15.8854 17.2604 16.5754 16.5718C17.2655 15.8831 18.171 15.4521 19.1406 15.3508L22.7 14.9602C23.8206 14.8362 24.8948 14.4441 25.8318 13.8171C26.7687 13.19 27.5409 12.3465 28.0828 11.3579L29.8015 8.22662C30.2733 7.37635 31.0187 6.71061 31.9166 6.33758C32.8146 5.96455 33.8123 5.90618 34.7476 6.17193L38.1773 7.17271C39.259 7.48777 40.4006 7.53788 41.5056 7.31882C42.6107 7.09976 43.6469 6.61796 44.5265 5.91412L47.3234 3.67193C48.0809 3.05912 49.0257 2.72479 50 2.72479C50.9743 2.72479 51.9191 3.05912 52.6765 3.67193L55.4734 5.91255C56.3535 6.61584 57.3898 7.09734 58.4949 7.31651C59.5999 7.53568 60.7415 7.48609 61.8234 7.17193L65.2523 6.17193C66.1881 5.89535 67.1905 5.94834 68.0919 6.32204C68.9933 6.69574 69.7391 7.3675 70.2047 8.22506L71.9234 11.3571C72.4653 12.3458 73.2376 13.1894 74.1747 13.8164C75.1118 14.4433 76.1863 14.8351 77.307 14.9586L80.8656 15.3493C81.8346 15.4518 82.7391 15.8837 83.4281 16.5727C84.1171 17.2617 84.549 18.1662 84.6515 19.1352L85.0422 22.6946C85.1662 23.8152 85.5583 24.8894 86.1853 25.8264C86.8124 26.7633 87.6559 27.5355 88.6445 28.0774L91.7758 29.7962C92.6272 30.268 93.2936 31.0144 93.6665 31.9136C94.0393 32.8128 94.0966 33.8118 93.8289 34.7477L92.8281 38.1774C92.5132 39.2591 92.4631 40.4006 92.6822 41.5057C92.9012 42.6107 93.383 43.6469 94.0867 44.5266L96.3273 47.3235C96.94 48.081 97.2742 49.0258 97.2742 50.0001C97.2742 50.9743 96.94 51.9191 96.3273 52.6766L94.0851 55.4735Z" fill="white"/>
</g>
<defs>
<clipPath id="clip0">
<rect width="100" height="100" fill="white"/>
</clipPath>
</defs>
</svg>
