<svg width="20" height="20" viewBox="0 0 20 20" fill="none" xmlns="http://www.w3.org/2000/svg">
<g clip-path="url(#clip0)">
<path d="M15.8064 12.3895C15.397 11.9632 14.9031 11.7353 14.3797 11.7353C13.8605 11.7353 13.3624 11.959 12.936 12.3853L11.6022 13.715C11.4924 13.6559 11.3827 13.601 11.2771 13.5461C11.1252 13.4702 10.9816 13.3984 10.8592 13.3224C9.60978 12.5288 8.47429 11.4947 7.38524 10.1566C6.8576 9.48963 6.50302 8.92821 6.24553 8.35836C6.59166 8.04178 6.91247 7.71253 7.22484 7.39594C7.34303 7.27775 7.46122 7.15534 7.57941 7.03715C8.46585 6.15071 8.46585 5.00256 7.57941 4.11612L6.42704 2.96375C6.29619 2.8329 6.16111 2.69782 6.03447 2.56274C5.78121 2.30103 5.51527 2.03088 5.2409 1.77761C4.83145 1.37238 4.3418 1.1571 3.82682 1.1571C3.31184 1.1571 2.81375 1.37238 2.39163 1.77761C2.38741 1.78183 2.38741 1.78183 2.38319 1.78605L0.948004 3.2339C0.407699 3.77421 0.099556 4.43271 0.0320178 5.19673C-0.0692895 6.4293 0.293728 7.57745 0.572323 8.32881C1.25615 10.1734 2.27766 11.883 3.80149 13.715C5.65035 15.9226 7.87489 17.666 10.416 18.8943C11.3869 19.3544 12.6828 19.8989 14.1306 19.9918C14.2193 19.996 14.3121 20.0003 14.3965 20.0003C15.3716 20.0003 16.1905 19.6499 16.8321 18.9534C16.8364 18.945 16.8448 18.9407 16.849 18.9323C17.0685 18.6664 17.3218 18.4258 17.5877 18.1683C17.7692 17.9952 17.955 17.8137 18.1365 17.6238C18.5544 17.189 18.7739 16.6824 18.7739 16.1632C18.7739 15.6398 18.5501 15.1375 18.1238 14.7154L15.8064 12.3895ZM17.3176 16.8344C17.3134 16.8344 17.3134 16.8386 17.3176 16.8344C17.153 17.0117 16.9841 17.1721 16.8026 17.3494C16.5282 17.6111 16.2496 17.8855 15.9879 18.1936C15.5616 18.6495 15.0593 18.8648 14.4008 18.8648C14.3375 18.8648 14.2699 18.8648 14.2066 18.8605C12.9529 18.7803 11.7879 18.2907 10.9141 17.8728C8.52495 16.7162 6.42704 15.0742 4.68371 12.9932C3.2443 11.2583 2.28188 9.65425 1.64449 7.93203C1.25193 6.88096 1.10841 6.06206 1.17172 5.2896C1.21394 4.79572 1.40389 4.38627 1.75424 4.03592L3.19365 2.59651C3.40049 2.40234 3.61998 2.29681 3.83526 2.29681C4.10119 2.29681 4.31647 2.45721 4.45155 2.59229C4.45577 2.59651 4.45999 2.60073 4.46421 2.60495C4.7217 2.84556 4.96653 3.09461 5.22402 3.36054C5.35487 3.49561 5.48995 3.63069 5.62502 3.76999L6.77739 4.92236C7.22483 5.3698 7.22483 5.78347 6.77739 6.23091C6.65498 6.35332 6.53679 6.47573 6.41438 6.59393C6.0598 6.95694 5.72211 7.29464 5.35487 7.62388C5.34643 7.63233 5.33799 7.63655 5.33377 7.64499C4.97075 8.00801 5.03829 8.36258 5.11427 8.60319C5.11849 8.61585 5.12271 8.62851 5.12693 8.64118C5.42663 9.36721 5.84874 10.051 6.49036 10.8657L6.49458 10.8699C7.65961 12.3051 8.88796 13.4237 10.2429 14.2806C10.416 14.3904 10.5933 14.479 10.7621 14.5634C10.9141 14.6394 11.0576 14.7112 11.18 14.7872C11.1969 14.7956 11.2138 14.8083 11.2307 14.8167C11.3742 14.8885 11.5093 14.9222 11.6486 14.9222C11.9989 14.9222 12.2184 14.7027 12.2902 14.631L13.7338 13.1873C13.8773 13.0438 14.1053 12.8708 14.3712 12.8708C14.6329 12.8708 14.8482 13.0354 14.9791 13.1789C14.9833 13.1831 14.9833 13.1831 14.9875 13.1873L17.3134 15.5132C17.7481 15.9437 17.7481 16.387 17.3176 16.8344Z" fill="#4F4F4F"/>
<path d="M10.8089 4.75777C11.9148 4.9435 12.9195 5.46692 13.7215 6.26894C14.5235 7.07095 15.0427 8.07558 15.2327 9.18152C15.2791 9.46012 15.5197 9.65429 15.7941 9.65429C15.8278 9.65429 15.8574 9.65007 15.8912 9.64585C16.2035 9.59519 16.4104 9.29972 16.3597 8.98735C16.1318 7.64925 15.4986 6.42934 14.5319 5.4627C13.5653 4.49606 12.3454 3.86289 11.0073 3.63495C10.6949 3.58429 10.4037 3.79113 10.3488 4.09927C10.2939 4.40742 10.4965 4.70712 10.8089 4.75777Z" fill="#4F4F4F"/>
<path d="M19.9766 8.82267C19.6009 6.61923 18.5625 4.61419 16.9669 3.0186C15.3714 1.42301 13.3663 0.384613 11.1629 0.00893186C10.8547 -0.0459429 10.5635 0.165114 10.5086 0.473257C10.4579 0.785621 10.6648 1.07688 10.9771 1.13175C12.9442 1.46522 14.7382 2.3981 16.1649 3.82062C17.5917 5.24736 18.5203 7.04135 18.8538 9.0084C18.9002 9.28699 19.1408 9.48116 19.4152 9.48116C19.449 9.48116 19.4785 9.47694 19.5123 9.47272C19.8204 9.42629 20.0315 9.13081 19.9766 8.82267Z" fill="#4F4F4F"/>
</g>
<defs>
<clipPath id="clip0">
<rect width="20" height="20" fill="white"/>
</clipPath>
</defs>
</svg>
