<svg width="20" height="20" viewBox="0 0 20 20" fill="none" xmlns="http://www.w3.org/2000/svg">
<g clip-path="url(#clip0)">
<path d="M19.7873 8.12772L10.307 1.18643C10.1242 1.0526 9.87584 1.0526 9.69311 1.18643L0.212718 8.12772C-0.0188446 8.29729 -0.0691571 8.62245 0.100413 8.85401C0.269983 9.08557 0.595179 9.13581 0.826702 8.96631L10 2.24975L19.1733 8.96627C19.2658 9.03405 19.3733 9.06666 19.4799 9.06666C19.6399 9.06666 19.7978 8.99303 19.8996 8.85397C20.0692 8.62245 20.0189 8.29729 19.7873 8.12772Z" fill="#4F4F4F"/>
<path d="M17.2752 9.08362C16.9882 9.08362 16.7555 9.31627 16.7555 9.60327V17.8747H12.5984V13.3596C12.5984 11.9268 11.4327 10.7612 9.99996 10.7612C8.56723 10.7612 7.40152 11.9269 7.40152 13.3596V17.8748H3.24437V9.60331C3.24437 9.31631 3.01168 9.08366 2.72473 9.08366C2.43777 9.08366 2.20508 9.31631 2.20508 9.60331V18.3944C2.20508 18.6814 2.43777 18.9141 2.72473 18.9141H7.92117C8.19445 18.9141 8.41809 18.703 8.43879 18.4349C8.44004 18.4228 8.44082 18.4095 8.44082 18.3944V13.3597C8.44082 12.4999 9.14023 11.8005 9.99996 11.8005C10.8597 11.8005 11.5591 12.5 11.5591 13.3597V18.3944C11.5591 18.4094 11.5599 18.4224 11.5611 18.4344C11.5816 18.7027 11.8053 18.9141 12.0787 18.9141H17.2752C17.5622 18.9141 17.7948 18.6814 17.7948 18.3944V9.60331C17.7948 9.31627 17.5621 9.08362 17.2752 9.08362Z" fill="#4F4F4F"/>
</g>
<defs>
<clipPath id="clip0">
<rect width="20" height="20" fill="white"/>
</clipPath>
</defs>
</svg>
